<mxfile host="app.diagrams.net" agent="Mozilla/5.0 (Windows NT 10.0; Win64; x64) AppleWebKit/537.36 (KHTML, like Gecko) Chrome/130.0.0.0 Safari/537.36" version="24.8.3">
  <diagram id="C5RBs43oDa-KdzZeNtuy" name="Page-1">
    <mxGraphModel dx="1434" dy="746" grid="1" gridSize="10" guides="1" tooltips="1" connect="1" arrows="1" fold="1" page="1" pageScale="1" pageWidth="827" pageHeight="1169" math="0" shadow="0">
      <root>
        <mxCell id="WIyWlLk6GJQsqaUBKTNV-0" />
        <mxCell id="WIyWlLk6GJQsqaUBKTNV-1" parent="WIyWlLk6GJQsqaUBKTNV-0" />
        <mxCell id="EqVI_iHgHLExRBhCqhbE-0" style="edgeStyle=orthogonalEdgeStyle;rounded=0;orthogonalLoop=1;jettySize=auto;html=1;exitX=0.5;exitY=1;exitDx=0;exitDy=0;" edge="1" parent="WIyWlLk6GJQsqaUBKTNV-1" source="EqVI_iHgHLExRBhCqhbE-1" target="EqVI_iHgHLExRBhCqhbE-11">
          <mxGeometry relative="1" as="geometry" />
        </mxCell>
        <mxCell id="EqVI_iHgHLExRBhCqhbE-1" value="Inicio" style="ellipse;whiteSpace=wrap;html=1;" vertex="1" parent="WIyWlLk6GJQsqaUBKTNV-1">
          <mxGeometry x="354" y="120" width="120" height="80" as="geometry" />
        </mxCell>
        <mxCell id="EqVI_iHgHLExRBhCqhbE-2" style="edgeStyle=orthogonalEdgeStyle;rounded=0;orthogonalLoop=1;jettySize=auto;html=1;exitX=0.5;exitY=1;exitDx=0;exitDy=0;entryX=0.5;entryY=0;entryDx=0;entryDy=0;" edge="1" parent="WIyWlLk6GJQsqaUBKTNV-1" source="EqVI_iHgHLExRBhCqhbE-3" target="EqVI_iHgHLExRBhCqhbE-8">
          <mxGeometry relative="1" as="geometry" />
        </mxCell>
        <mxCell id="EqVI_iHgHLExRBhCqhbE-3" value="Pedido produtor" style="rounded=0;whiteSpace=wrap;html=1;" vertex="1" parent="WIyWlLk6GJQsqaUBKTNV-1">
          <mxGeometry x="354" y="350" width="120" height="60" as="geometry" />
        </mxCell>
        <mxCell id="EqVI_iHgHLExRBhCqhbE-4" style="edgeStyle=orthogonalEdgeStyle;rounded=0;orthogonalLoop=1;jettySize=auto;html=1;entryX=0.5;entryY=0;entryDx=0;entryDy=0;" edge="1" parent="WIyWlLk6GJQsqaUBKTNV-1" source="EqVI_iHgHLExRBhCqhbE-8">
          <mxGeometry relative="1" as="geometry">
            <mxPoint x="574" y="610" as="targetPoint" />
          </mxGeometry>
        </mxCell>
        <mxCell id="EqVI_iHgHLExRBhCqhbE-5" value="NÃ£o" style="edgeLabel;html=1;align=center;verticalAlign=middle;resizable=0;points=[];" vertex="1" connectable="0" parent="EqVI_iHgHLExRBhCqhbE-4">
          <mxGeometry x="-0.2087" y="-1" relative="1" as="geometry">
            <mxPoint x="-21" y="-11" as="offset" />
          </mxGeometry>
        </mxCell>
        <mxCell id="EqVI_iHgHLExRBhCqhbE-6" style="edgeStyle=orthogonalEdgeStyle;rounded=0;orthogonalLoop=1;jettySize=auto;html=1;exitX=0;exitY=0.5;exitDx=0;exitDy=0;entryX=0.5;entryY=0;entryDx=0;entryDy=0;" edge="1" parent="WIyWlLk6GJQsqaUBKTNV-1" source="EqVI_iHgHLExRBhCqhbE-8">
          <mxGeometry relative="1" as="geometry">
            <mxPoint x="264" y="610" as="targetPoint" />
          </mxGeometry>
        </mxCell>
        <mxCell id="EqVI_iHgHLExRBhCqhbE-7" value="Sim" style="edgeLabel;html=1;align=center;verticalAlign=middle;resizable=0;points=[];" vertex="1" connectable="0" parent="EqVI_iHgHLExRBhCqhbE-6">
          <mxGeometry x="-0.1364" relative="1" as="geometry">
            <mxPoint x="35" y="-10" as="offset" />
          </mxGeometry>
        </mxCell>
        <mxCell id="EqVI_iHgHLExRBhCqhbE-8" value="Validar lista&lt;br&gt;&amp;nbsp;de produtos" style="rhombus;whiteSpace=wrap;html=1;" vertex="1" parent="WIyWlLk6GJQsqaUBKTNV-1">
          <mxGeometry x="364.5" y="461" width="99" height="99" as="geometry" />
        </mxCell>
        <mxCell id="EqVI_iHgHLExRBhCqhbE-9" value="Fim" style="ellipse;whiteSpace=wrap;html=1;" vertex="1" parent="WIyWlLk6GJQsqaUBKTNV-1">
          <mxGeometry x="204" y="850" width="120" height="80" as="geometry" />
        </mxCell>
        <mxCell id="EqVI_iHgHLExRBhCqhbE-10" style="edgeStyle=orthogonalEdgeStyle;rounded=0;orthogonalLoop=1;jettySize=auto;html=1;exitX=0.5;exitY=1;exitDx=0;exitDy=0;entryX=0.5;entryY=0;entryDx=0;entryDy=0;" edge="1" parent="WIyWlLk6GJQsqaUBKTNV-1" source="EqVI_iHgHLExRBhCqhbE-11" target="EqVI_iHgHLExRBhCqhbE-3">
          <mxGeometry relative="1" as="geometry" />
        </mxCell>
        <mxCell id="EqVI_iHgHLExRBhCqhbE-11" value="Gerir produtores&lt;div&gt;AMAP&lt;/div&gt;" style="rounded=0;whiteSpace=wrap;html=1;" vertex="1" parent="WIyWlLk6GJQsqaUBKTNV-1">
          <mxGeometry x="354" y="230" width="120" height="60" as="geometry" />
        </mxCell>
        <mxCell id="EqVI_iHgHLExRBhCqhbE-12" style="edgeStyle=orthogonalEdgeStyle;rounded=0;orthogonalLoop=1;jettySize=auto;html=1;exitX=0.5;exitY=1;exitDx=0;exitDy=0;entryX=0.5;entryY=0;entryDx=0;entryDy=0;" edge="1" parent="WIyWlLk6GJQsqaUBKTNV-1" source="EqVI_iHgHLExRBhCqhbE-13" target="EqVI_iHgHLExRBhCqhbE-16">
          <mxGeometry relative="1" as="geometry" />
        </mxCell>
        <mxCell id="EqVI_iHgHLExRBhCqhbE-13" value="Pedido&lt;div&gt;Produtor Aceite&lt;/div&gt;" style="rounded=0;whiteSpace=wrap;html=1;" vertex="1" parent="WIyWlLk6GJQsqaUBKTNV-1">
          <mxGeometry x="204" y="610" width="120" height="60" as="geometry" />
        </mxCell>
        <mxCell id="EqVI_iHgHLExRBhCqhbE-14" value="Pedido Rejeitado" style="rounded=0;whiteSpace=wrap;html=1;" vertex="1" parent="WIyWlLk6GJQsqaUBKTNV-1">
          <mxGeometry x="514" y="610" width="120" height="60" as="geometry" />
        </mxCell>
        <mxCell id="EqVI_iHgHLExRBhCqhbE-15" style="edgeStyle=orthogonalEdgeStyle;rounded=0;orthogonalLoop=1;jettySize=auto;html=1;exitX=0.5;exitY=1;exitDx=0;exitDy=0;entryX=0.5;entryY=0;entryDx=0;entryDy=0;" edge="1" parent="WIyWlLk6GJQsqaUBKTNV-1" source="EqVI_iHgHLExRBhCqhbE-16" target="EqVI_iHgHLExRBhCqhbE-9">
          <mxGeometry relative="1" as="geometry" />
        </mxCell>
        <mxCell id="EqVI_iHgHLExRBhCqhbE-16" value="Definir categorias(s)&lt;div&gt;de produto(s) a autorizados na AMAP&lt;/div&gt;" style="rounded=0;whiteSpace=wrap;html=1;" vertex="1" parent="WIyWlLk6GJQsqaUBKTNV-1">
          <mxGeometry x="194" y="735" width="140" height="60" as="geometry" />
        </mxCell>
      </root>
    </mxGraphModel>
  </diagram>
</mxfile>
